<svg width="84" height="84" xmlns="http://www.w3.org/2000/svg" xmlns:xlink="http://www.w3.org/1999/xlink" xml:space="preserve" overflow="hidden"><defs><clipPath id="clip0"><rect x="188" y="208" width="84" height="84"/></clipPath><clipPath id="clip1"><rect x="188" y="208" width="83" height="83"/></clipPath><clipPath id="clip2"><rect x="188" y="208" width="83" height="83"/></clipPath><clipPath id="clip3"><rect x="188" y="208" width="83" height="83"/></clipPath></defs><g clip-path="url(#clip0)" transform="translate(-188 -208)"><g clip-path="url(#clip1)"><g clip-path="url(#clip2)"><g clip-path="url(#clip3)"><path d="M258.231 275.038 258.231 223.962C258.231 222.198 256.802 220.769 255.038 220.769L203.962 220.769C202.198 220.769 200.769 222.198 200.769 223.962L200.769 275.038C200.769 276.802 202.198 278.231 203.962 278.231L255.038 278.231C256.802 278.231 258.231 276.802 258.231 275.038Z" stroke="#8FAADC" stroke-width="3" stroke-linecap="butt" stroke-linejoin="miter" stroke-miterlimit="4" stroke-opacity="1" fill="none" fill-rule="nonzero"/><path d="M211.942 284.615 211.942 270.25C211.942 268.487 210.513 267.058 208.75 267.058L194.385 267.058C192.622 267.058 191.192 268.487 191.192 270.25L191.192 284.615C191.192 286.379 192.622 287.808 194.385 287.808L208.75 287.808C210.513 287.808 211.942 286.379 211.942 284.615Z" stroke="#8FAADC" stroke-width="3" stroke-linecap="butt" stroke-linejoin="miter" stroke-miterlimit="4" stroke-opacity="1" fill="none" fill-rule="nonzero"/><path d="M250.25 287.808 264.615 287.808C266.379 287.808 267.808 286.379 267.808 284.615L267.808 270.25C267.808 268.487 266.379 267.058 264.615 267.058L250.25 267.058C248.487 267.058 247.058 268.487 247.058 270.25L247.058 284.615C247.058 286.379 248.487 287.808 250.25 287.808Z" stroke="#8FAADC" stroke-width="3" stroke-linecap="butt" stroke-linejoin="miter" stroke-miterlimit="4" stroke-opacity="1" fill="none" fill-rule="nonzero"/><path d="M194.385 231.942 208.75 231.942C210.513 231.942 211.942 230.513 211.942 228.75L211.942 214.385C211.942 212.622 210.513 211.192 208.75 211.192L194.385 211.192C192.622 211.192 191.192 212.622 191.192 214.385L191.192 228.75C191.192 230.513 192.622 231.942 194.385 231.942Z" stroke="#8FAADC" stroke-width="3" stroke-linecap="butt" stroke-linejoin="miter" stroke-miterlimit="4" stroke-opacity="1" fill="none" fill-rule="nonzero"/><path d="M267.808 228.75 267.808 214.385C267.808 212.622 266.379 211.192 264.615 211.192L250.25 211.192C248.487 211.192 247.058 212.622 247.058 214.385L247.058 228.75C247.058 230.513 248.487 231.942 250.25 231.942L264.615 231.942C266.379 231.942 267.808 230.513 267.808 228.75Z" stroke="#8FAADC" stroke-width="3" stroke-linecap="butt" stroke-linejoin="miter" stroke-miterlimit="4" stroke-opacity="1" fill="none" fill-rule="nonzero"/></g></g></g></g></svg>