<svg width="97" height="97" xmlns="http://www.w3.org/2000/svg" xmlns:xlink="http://www.w3.org/1999/xlink" xml:space="preserve" overflow="hidden"><defs><clipPath id="clip0"><rect x="1016" y="212" width="97" height="97"/></clipPath><clipPath id="clip1"><rect x="1017" y="213" width="96" height="96"/></clipPath><clipPath id="clip2"><rect x="1017" y="213" width="96" height="96"/></clipPath><clipPath id="clip3"><rect x="1017" y="213" width="96" height="96"/></clipPath></defs><g clip-path="url(#clip0)" transform="translate(-1016 -212)"><g clip-path="url(#clip1)"><g clip-path="url(#clip2)"><g clip-path="url(#clip3)"><path d="M1067 254 1067 233 1050.74 233C1049.64 228.722 1045.27 226.15 1040.99 227.254 1036.72 228.359 1034.14 232.722 1035.25 237 1036.35 241.278 1040.72 243.85 1044.99 242.746 1047.81 242.018 1050.01 239.818 1050.74 237L1063 237 1063 254 1057 254 1057 258 1073 258 1073 254Z" stroke="#8FAADC" stroke-width="1" stroke-linecap="butt" stroke-linejoin="miter" stroke-miterlimit="4" stroke-opacity="1" fill="#8FAADC" fill-rule="nonzero" fill-opacity="1"/><path d="M1087 279C1083.35 279.003 1080.17 281.47 1079.26 285L1067 285 1067 268 1073 268 1073 264 1057 264 1057 268 1063 268 1063 289 1079.26 289C1080.36 293.278 1084.73 295.85 1089.01 294.746 1093.28 293.641 1095.86 289.278 1094.75 285 1093.84 281.466 1090.65 278.997 1087 279Z" stroke="#8FAADC" stroke-width="1" stroke-linecap="butt" stroke-linejoin="miter" stroke-miterlimit="4" stroke-opacity="1" fill="#8FAADC" fill-rule="nonzero" fill-opacity="1"/></g></g></g></g></svg>