<svg width="97" height="98" xmlns="http://www.w3.org/2000/svg" xmlns:xlink="http://www.w3.org/1999/xlink" xml:space="preserve" overflow="hidden"><defs><clipPath id="clip0"><rect x="824" y="210" width="97" height="98"/></clipPath><clipPath id="clip1"><rect x="825" y="211" width="96" height="96"/></clipPath><clipPath id="clip2"><rect x="825" y="211" width="96" height="96"/></clipPath><clipPath id="clip3"><rect x="825" y="211" width="96" height="96"/></clipPath></defs><g clip-path="url(#clip0)" transform="translate(-824 -210)"><g clip-path="url(#clip1)"><g clip-path="url(#clip2)"><g clip-path="url(#clip3)"><path d="M872 234 872 253 866 253 866 255 880 255 880 253 874 253 874 232 858.931 232C858.379 227.616 854.377 224.51 849.994 225.063 845.61 225.615 842.504 229.616 843.057 234 843.609 238.384 847.61 241.49 851.994 240.937 855.619 240.48 858.474 237.625 858.931 234ZM851 239C847.686 239 845 236.314 845 233 845 229.686 847.686 227 851 227 854.314 227 857 229.686 857 233 856.996 236.312 854.312 238.996 851 239Z" stroke="#8FAADC" stroke-width="1" stroke-linecap="butt" stroke-linejoin="miter" stroke-miterlimit="4" stroke-opacity="1" fill="#8FAADC" fill-rule="nonzero" fill-opacity="1"/><path d="M895 277C890.971 277.004 887.574 280.003 887.07 284L874 284 874 265 880 265 880 263 866 263 866 265 872 265 872 286 887.069 286C887.621 290.384 891.623 293.49 896.006 292.937 900.39 292.385 903.496 288.384 902.943 284 902.439 279.998 899.034 276.997 895 277ZM895 291C891.686 291 889 288.314 889 285 889 281.686 891.686 279 895 279 898.314 279 901 281.686 901 285 900.996 288.312 898.312 290.996 895 291Z" stroke="#8FAADC" stroke-width="1" stroke-linecap="butt" stroke-linejoin="miter" stroke-miterlimit="4" stroke-opacity="1" fill="#8FAADC" fill-rule="nonzero" fill-opacity="1"/></g></g></g></g></svg>