<svg width="98" height="98" xmlns="http://www.w3.org/2000/svg" xmlns:xlink="http://www.w3.org/1999/xlink" xml:space="preserve" overflow="hidden"><defs><clipPath id="clip0"><rect x="634" y="214" width="98" height="98"/></clipPath><clipPath id="clip1"><rect x="635" y="215" width="96" height="96"/></clipPath><clipPath id="clip2"><rect x="635" y="215" width="96" height="96"/></clipPath><clipPath id="clip3"><rect x="635" y="215" width="96" height="96"/></clipPath></defs><g clip-path="url(#clip0)" transform="translate(-634 -214)"><g clip-path="url(#clip1)"><g clip-path="url(#clip2)"><g clip-path="url(#clip3)"><path d="M712 294 712 234C712 228.154 697.059 225 683 225 668.941 225 654 228.154 654 234L654 294C654 299.846 668.941 303 683 303 697.059 303 712 299.846 712 294ZM683 227C698.453 227 710 230.7 710 234 710 237.3 698.453 241 683 241 667.547 241 656 237.3 656 234 656 230.7 667.547 227 683 227ZM656 237.46C660.529 241.08 672.033 243 683 243 693.967 243 705.471 241.08 710 237.46L710 254C710 257.3 698.453 261 683 261 667.547 261 656 257.3 656 254ZM656 257.46C660.529 261.08 672.033 263 683 263 693.967 263 705.471 261.08 710 257.46L710 274C710 277.3 698.453 281 683 281 667.547 281 656 277.3 656 274ZM656 294 656 277.46C660.529 281.08 672.033 283 683 283 693.967 283 705.471 281.08 710 277.46L710 294C710 297.3 698.453 301 683 301 667.547 301 656 297.3 656 294Z" stroke="#8FAADC" stroke-width="1" stroke-linecap="butt" stroke-linejoin="miter" stroke-miterlimit="4" stroke-opacity="1" fill="#8FAADC" fill-rule="nonzero" fill-opacity="1"/><path d="M705 251C705 252.105 704.105 253 703 253 701.895 253 701 252.105 701 251 701 249.895 701.895 249 703 249 704.105 249 705 249.895 705 251Z" stroke="#8FAADC" stroke-width="1" stroke-linecap="butt" stroke-linejoin="miter" stroke-miterlimit="4" stroke-opacity="1" fill="#8FAADC" fill-rule="nonzero" fill-opacity="1"/><path d="M705 271C705 272.105 704.105 273 703 273 701.895 273 701 272.105 701 271 701 269.895 701.895 269 703 269 704.105 269 705 269.895 705 271Z" stroke="#8FAADC" stroke-width="1" stroke-linecap="butt" stroke-linejoin="miter" stroke-miterlimit="4" stroke-opacity="1" fill="#8FAADC" fill-rule="nonzero" fill-opacity="1"/><path d="M705 291C705 292.105 704.105 293 703 293 701.895 293 701 292.105 701 291 701 289.895 701.895 289 703 289 704.105 289 705 289.895 705 291Z" stroke="#8FAADC" stroke-width="1" stroke-linecap="butt" stroke-linejoin="miter" stroke-miterlimit="4" stroke-opacity="1" fill="#8FAADC" fill-rule="nonzero" fill-opacity="1"/></g></g></g></g></svg>