<svg width="97" height="96" xmlns="http://www.w3.org/2000/svg" xmlns:xlink="http://www.w3.org/1999/xlink" xml:space="preserve" overflow="hidden"><defs><clipPath id="clip0"><rect x="736" y="208" width="97" height="96"/></clipPath><clipPath id="clip1"><rect x="737" y="208" width="96" height="96"/></clipPath><clipPath id="clip2"><rect x="737" y="208" width="96" height="96"/></clipPath><clipPath id="clip3"><rect x="737" y="208" width="96" height="96"/></clipPath></defs><g clip-path="url(#clip0)" transform="translate(-736 -208)"><g clip-path="url(#clip1)"><g clip-path="url(#clip2)"><g clip-path="url(#clip3)"><path d="M813 226C813 230.418 800.464 234 785 234 769.536 234 757 230.418 757 226 757 221.582 769.536 218 785 218 800.464 218 813 221.582 813 226Z" stroke="#8FAADC" stroke-width="1" stroke-linecap="butt" stroke-linejoin="miter" stroke-miterlimit="4" stroke-opacity="1" fill="#8FAADC" fill-rule="nonzero" fill-opacity="1"/><path d="M805 246C803.8 246 803 245.2 803 244 803 242.8 803.8 242 805 242 806.2 242 807 242.8 807 244 807 245.2 806.2 246 805 246ZM785 238C769.6 238 757 234.4 757 230L757 246C757 250.4 769.6 254 785 254 800.4 254 813 250.4 813 246L813 230C813 234.4 800.4 238 785 238Z" stroke="#8FAADC" stroke-width="1" stroke-linecap="butt" stroke-linejoin="miter" stroke-miterlimit="4" stroke-opacity="1" fill="#8FAADC" fill-rule="nonzero" fill-opacity="1"/><path d="M805 266C803.8 266 803 265.2 803 264 803 262.8 803.8 262 805 262 806.2 262 807 262.8 807 264 807 265.2 806.2 266 805 266ZM785 258C769.6 258 757 254.4 757 250L757 266C757 270.4 769.6 274 785 274 800.4 274 813 270.4 813 266L813 250C813 254.4 800.4 258 785 258Z" stroke="#8FAADC" stroke-width="1" stroke-linecap="butt" stroke-linejoin="miter" stroke-miterlimit="4" stroke-opacity="1" fill="#8FAADC" fill-rule="nonzero" fill-opacity="1"/><path d="M805 286C803.8 286 803 285.2 803 284 803 282.8 803.8 282 805 282 806.2 282 807 282.8 807 284 807 285.2 806.2 286 805 286ZM785 278C769.6 278 757 274.4 757 270L757 286C757 290.4 769.6 294 785 294 800.4 294 813 290.4 813 286L813 270C813 274.4 800.4 278 785 278Z" stroke="#8FAADC" stroke-width="1" stroke-linecap="butt" stroke-linejoin="miter" stroke-miterlimit="4" stroke-opacity="1" fill="#8FAADC" fill-rule="nonzero" fill-opacity="1"/></g></g></g></g></svg>