<svg width="98" height="98" xmlns="http://www.w3.org/2000/svg" xmlns:xlink="http://www.w3.org/1999/xlink" xml:space="preserve" overflow="hidden"><defs><clipPath id="clip0"><rect x="534" y="214" width="98" height="98"/></clipPath><clipPath id="clip1"><rect x="535" y="215" width="96" height="96"/></clipPath><clipPath id="clip2"><rect x="535" y="215" width="96" height="96"/></clipPath><clipPath id="clip3"><rect x="535" y="215" width="96" height="96"/></clipPath></defs><g clip-path="url(#clip0)" transform="translate(-534 -214)"><g clip-path="url(#clip1)"><g clip-path="url(#clip2)"><g clip-path="url(#clip3)"><path d="M583 275C576.4 275 571 269.6 571 263 571 256.4 576.4 251 583 251 589.6 251 595 256.4 595 263 595 269.6 589.6 275 583 275ZM610 255.5C609.4 253.3 608.5 251.2 607.4 249.3L609.9 241.8 604.2 236.1 596.7 238.6C594.7 237.5 592.6 236.6 590.4 236L587 229 579 229 575.5 236C573.3 236.6 571.2 237.5 569.3 238.6L561.8 236.1 556.1 241.8 558.6 249.3C557.5 251.3 556.6 253.4 556 255.6L549 259 549 267 556 270.5C556.6 272.7 557.5 274.8 558.6 276.7L556.1 284.2 561.8 289.9 569.3 287.4C571.3 288.5 573.4 289.4 575.6 290L579.1 297 587.1 297 590.6 290C592.8 289.4 594.9 288.5 596.8 287.4L604.3 289.9 610 284.2 607.5 276.7C608.6 274.7 609.5 272.6 610.1 270.4L617.1 266.9 617.1 258.9 610 255.5Z" stroke="#8FAADC" stroke-width="1" stroke-linecap="butt" stroke-linejoin="miter" stroke-miterlimit="4" stroke-opacity="1" fill="#8FAADC" fill-rule="nonzero" fill-opacity="1"/></g></g></g></g></svg>