<svg width="98" height="96" xmlns="http://www.w3.org/2000/svg" xmlns:xlink="http://www.w3.org/1999/xlink" xml:space="preserve" overflow="hidden"><defs><clipPath id="clip0"><rect x="406" y="208" width="98" height="96"/></clipPath><clipPath id="clip1"><rect x="407" y="208" width="96" height="96"/></clipPath><clipPath id="clip2"><rect x="407" y="208" width="96" height="96"/></clipPath><clipPath id="clip3"><rect x="407" y="208" width="96" height="96"/></clipPath></defs><g clip-path="url(#clip0)" transform="translate(-406 -208)"><g clip-path="url(#clip1)"><g clip-path="url(#clip2)"><g clip-path="url(#clip3)"><path d="M430.6 269.717 428.1 277.217 433.8 282.917 441.3 280.417C443.29 281.53 445.405 282.403 447.6 283.017L451.1 290.017 459.1 290.017 462.6 283.017C464.77 282.421 466.854 281.547 468.8 280.417L476.3 282.917 482 277.217 479.5 269.717C480.612 267.727 481.485 265.612 482.1 263.417L489.1 259.917 489.1 251.917 482 248.517C481.403 246.347 480.529 244.264 479.4 242.317L481.9 234.817 476.2 229.117 468.7 231.617C466.71 230.504 464.595 229.631 462.4 229.017L459 222 451 222 447.5 229C445.33 229.596 443.246 230.47 441.3 231.6L433.8 229.1 428.1 234.8 430.6 242.3C429.488 244.29 428.615 246.405 428 248.6L421 252 421 260 428 263.5C428.596 265.676 429.47 267.765 430.6 269.717ZM423 253.264 428.874 250.41 429.691 250.01 429.93 249.134C430.504 247.09 431.317 245.122 432.353 243.269L432.774 242.503 432.498 241.673 430.388 235.344 434.341 231.39 440.668 233.5 441.523 233.785 442.303 233.333C444.1 232.29 446.024 231.483 448.027 230.933L448.89 230.698 449.29 229.898 452.238 224 457.75 224 460.6 229.88 461 230.696 461.876 230.935C463.919 231.51 465.887 232.324 467.739 233.359L468.506 233.781 469.336 233.504 475.663 231.394 479.616 235.348 477.506 241.677 477.221 242.532 477.673 243.311C478.716 245.108 479.523 247.033 480.073 249.037L480.314 249.92 481.139 250.315 487.1 253.172 487.1 258.679 481.205 261.627 480.405 262.027 480.17 262.889C479.596 264.932 478.782 266.901 477.747 268.754L477.326 269.52 477.602 270.35 479.712 276.679 475.759 280.633 469.432 278.523 468.577 278.238 467.797 278.69C466 279.733 464.076 280.54 462.072 281.09L461.21 281.325 460.81 282.125 457.862 288.025 452.338 288.025 449.391 282.125 448.991 281.325 448.128 281.09C446.086 280.515 444.118 279.701 442.266 278.666L441.499 278.244 440.669 278.521 434.342 280.631 430.389 276.677 432.5 270.35 432.784 269.495 432.333 268.715C431.289 266.918 430.483 264.993 429.933 262.989L429.697 262.127 428.897 261.727 423 258.779Z" stroke="#8FAADC" stroke-width="1" stroke-linecap="butt" stroke-linejoin="miter" stroke-miterlimit="4" stroke-opacity="1" fill="#8FAADC" fill-rule="nonzero" fill-opacity="1"/><path d="M455 268.017C461.627 268.017 467 262.644 467 256.017 467 249.39 461.627 244.017 455 244.017 448.373 244.017 443 249.39 443 256.017 443.021 262.636 448.381 267.996 455 268.017ZM455 246.01C460.523 246.01 465 250.487 465 256.01 465 261.533 460.523 266.01 455 266.01 449.477 266.01 445 261.533 445 256.01 445.007 250.49 449.48 246.017 455 246.01Z" stroke="#8FAADC" stroke-width="1" stroke-linecap="butt" stroke-linejoin="miter" stroke-miterlimit="4" stroke-opacity="1" fill="#8FAADC" fill-rule="nonzero" fill-opacity="1"/></g></g></g></g></svg>