<svg width="97" height="97" xmlns="http://www.w3.org/2000/svg" xmlns:xlink="http://www.w3.org/1999/xlink" xml:space="preserve" overflow="hidden"><defs><clipPath id="clip0"><rect x="297" y="201" width="97" height="97"/></clipPath><clipPath id="clip1"><rect x="298" y="202" width="96" height="96"/></clipPath><clipPath id="clip2"><rect x="298" y="202" width="96" height="96"/></clipPath><clipPath id="clip3"><rect x="298" y="202" width="96" height="96"/></clipPath></defs><g clip-path="url(#clip0)" transform="translate(-297 -201)"><g clip-path="url(#clip1)"><g clip-path="url(#clip2)"><g clip-path="url(#clip3)"><path d="M372.5 240.411C373.209 239.178 373.779 237.87 374.2 236.511L378.6 234.311 378.6 229.311 374.2 227.111C373.832 225.749 373.295 224.439 372.6 223.211L374.2 218.511 370.6 214.911 365.9 216.511C364.673 215.812 363.362 215.271 362 214.9L359.8 210.5 354.8 210.5 352.6 214.9C351.238 215.268 349.928 215.805 348.7 216.5L344 214.9 340.4 218.5 342 223.2C341.305 224.428 340.768 225.738 340.4 227.1L336 229.3 336 234.3 340.4 236.5C340.768 237.862 341.306 239.172 342 240.4L340.4 245.1 343.9 248.6 348.6 247C349.828 247.695 351.138 248.232 352.5 248.6L354.7 253 359.7 253 361.9 248.6C363.262 248.232 364.572 247.695 365.8 247L370.5 248.6 374.1 245.1ZM370.606 241.055 371.8 244.56 369.985 246.325 366.445 245.119 365.581 244.825 364.792 245.285C363.709 245.897 362.553 246.369 361.351 246.69L360.505 246.932 360.111 247.719 358.464 251.019 355.939 251.019 354.292 247.719 353.898 246.932 353.052 246.69C351.85 246.369 350.693 245.897 349.61 245.285L348.822 244.825 347.958 245.119 344.436 246.319 342.696 244.579 343.896 241.056 344.19 240.192 343.73 239.404C343.119 238.32 342.649 237.163 342.33 235.961L342.088 235.115 341.302 234.722 338 233.073 338 230.544 341.3 228.9 342.086 228.506 342.328 227.66C342.647 226.458 343.117 225.301 343.728 224.218L344.188 223.429 343.894 222.566 342.694 219.042 344.534 217.202 348.056 218.402 348.92 218.702 349.708 218.241C350.792 217.631 351.948 217.16 353.15 216.841L354 216.585 354.394 215.798 356.041 212.498 358.569 212.498 360.216 215.798 360.61 216.585 361.455 216.827C362.657 217.146 363.814 217.617 364.897 218.227L365.686 218.688 366.55 218.388 370.071 217.188 371.911 219.028 370.711 222.552 370.417 223.415 370.877 224.204C371.489 225.287 371.961 226.444 372.282 227.646L372.523 228.492 373.31 228.886 376.61 230.534 376.61 233.063 373.31 234.711 372.545 235.094 372.293 235.912C371.917 237.127 371.408 238.297 370.776 239.4L370.316 240.188Z" stroke="#8FAADC" stroke-width="1" stroke-linecap="butt" stroke-linejoin="miter" stroke-miterlimit="4" stroke-opacity="1" fill="#8FAADC" fill-rule="nonzero" fill-opacity="1"/><path d="M313.4 265.618 313.4 270.618 317.8 272.818C318.168 274.18 318.705 275.49 319.4 276.718L317.9 281.418 321.4 284.918 326.1 283.418C327.328 284.113 328.638 284.65 330 285.018L332.2 289.418 337.2 289.418 339.4 285.018C340.762 284.65 342.072 284.113 343.3 283.418L348 285.018 351.5 281.418 350 276.818C350.695 275.59 351.232 274.28 351.6 272.918L356 270.718 356 265.718 351.6 263.518C351.232 262.156 350.695 260.846 350 259.618L351.6 254.918 348 251.318 343.3 252.918C342.064 252.24 340.756 251.704 339.4 251.318L337.2 246.918 332.2 246.918 330 251.318C328.638 251.686 327.328 252.223 326.1 252.918L321.4 251.318 317.9 254.818 319.4 259.518C318.723 260.754 318.186 262.062 317.8 263.418ZM319.46 264.818 319.712 264C320.056 262.792 320.531 261.624 321.128 260.519L321.576 259.75 321.305 258.903 320.176 255.362 321.934 253.603 325.456 254.803 326.32 255.098 327.108 254.638C328.191 254.026 329.348 253.553 330.55 253.233L331.4 253 331.794 252.213 333.441 248.913 335.969 248.913 337.616 252.213 337.999 252.979 338.817 253.23C340.025 253.575 341.192 254.05 342.297 254.647L343.086 255.107 343.95 254.812 347.471 253.612 349.311 255.453 348.111 258.976 347.817 259.839 348.277 260.628C348.889 261.712 349.361 262.868 349.682 264.071L349.923 264.916 350.71 265.31 354 266.954 354 269.483 350.7 271.131 349.913 271.525 349.672 272.37C349.351 273.572 348.879 274.729 348.267 275.813L347.815 276.588 348.093 277.441 349.219 280.894 347.45 282.722 343.95 281.529 343.086 281.235 342.297 281.695C341.213 282.308 340.055 282.78 338.852 283.1L338.006 283.342 337.613 284.129 335.966 287.429 333.438 287.429 331.791 284.129 331.397 283.342 330.551 283.1C329.349 282.78 328.192 282.307 327.109 281.695L326.341 281.247 325.493 281.517 321.954 282.647 320.177 280.87 321.306 277.329 321.577 276.482 321.129 275.713C320.517 274.63 320.045 273.473 319.724 272.271L319.482 271.425 318.696 271.031 315.396 269.383 315.396 266.854 318.696 265.206Z" stroke="#8FAADC" stroke-width="1" stroke-linecap="butt" stroke-linejoin="miter" stroke-miterlimit="4" stroke-opacity="1" fill="#8FAADC" fill-rule="nonzero" fill-opacity="1"/><path d="M357.3 224.306C353.158 224.306 349.8 227.664 349.8 231.806 349.8 235.948 353.158 239.306 357.3 239.306 361.442 239.306 364.8 235.948 364.8 231.806 364.769 227.677 361.429 224.337 357.3 224.306ZM357.3 237.306C354.264 237.302 351.804 234.842 351.8 231.806 351.84 228.785 354.279 226.346 357.3 226.306 360.336 226.31 362.796 228.77 362.8 231.806 362.762 234.828 360.322 237.27 357.3 237.31Z" stroke="#8FAADC" stroke-width="1" stroke-linecap="butt" stroke-linejoin="miter" stroke-miterlimit="4" stroke-opacity="1" fill="#8FAADC" fill-rule="nonzero" fill-opacity="1"/><path d="M334.7 275.721C338.842 275.721 342.2 272.363 342.2 268.221 342.2 264.079 338.842 260.721 334.7 260.721 330.558 260.721 327.2 264.079 327.2 268.221 327.195 272.358 330.545 275.716 334.682 275.721 334.688 275.721 334.694 275.721 334.7 275.721ZM334.7 262.716C337.738 262.716 340.2 265.178 340.2 268.216 340.2 271.254 337.738 273.716 334.7 273.716 331.662 273.716 329.2 271.254 329.2 268.216 329.204 265.18 331.664 262.72 334.7 262.716Z" stroke="#8FAADC" stroke-width="1" stroke-linecap="butt" stroke-linejoin="miter" stroke-miterlimit="4" stroke-opacity="1" fill="#8FAADC" fill-rule="nonzero" fill-opacity="1"/></g></g></g></g></svg>