<?xml version="1.0" encoding="utf-8"?>
<!-- Generator: Adobe Illustrator 24.0.0, SVG Export Plug-In . SVG Version: 6.00 Build 0)  -->
<svg version="1.1" id="图层_1" xmlns="http://www.w3.org/2000/svg" xmlns:xlink="http://www.w3.org/1999/xlink" x="0px" y="0px"
	 viewBox="0 0 24 24" style="enable-background:new 0 0 24 24;" xml:space="preserve">
<style type="text/css">
	.st0{fill:#FFFFFF;}
</style>
<g>
	<path class="st0" d="M15.7,13.5l0.2-0.3c0.4-0.5,0.6-1,0.6-1.4c-0.2-0.4-2.9-2.3-4.7-2.3c-0.3,0-0.6,0-1,0.1h-0.1L9,8.3l0.6-0.2
		c0.8-0.3,1.6-0.5,2.3-0.5C13,7.6,14.5,8.1,16,9c1.6,1,2.4,1.9,2.4,2.8c0,0.9-0.4,1.8-1,2.6l-0.2,0.2L15.7,13.5z"/>
	<path class="st0" d="M17.6,17.3c-0.2,0-0.4-0.1-0.5-0.2l-1.5-1.2c-0.8,0.5-2.1,1-3.7,1c-1.7,0-3.3-0.6-4.6-1.6c-1.2-1-2-2.3-2-3.6
		c0-0.8,0.6-1.6,1.8-2.4l-1-0.8C5.7,8.3,5.7,7.8,5.9,7.4c0.2-0.2,0.4-0.3,0.7-0.3c0.2,0,0.4,0.1,0.5,0.2l11,8.5
		c0.2,0.1,0.3,0.3,0.3,0.6c0,0.2,0,0.4-0.2,0.6C18.1,17.1,17.9,17.3,17.6,17.3z M8.6,10.5c-1,0.6-1.4,1.1-1.4,1.2
		c0,1.8,2.6,3.3,4.7,3.3c0.6,0,1.4-0.1,2-0.4l-0.6-0.5c-0.4,0.3-1,0.5-1.5,0.5c-1.4,0-2.5-1.1-2.5-2.5c0-0.3,0.1-0.7,0.2-1L8.6,10.5
		z"/>
	<path class="st0" d="M14.8,24c-0.4,0-0.7-0.2-0.8-0.6c-0.3-0.8-1.1-1.4-2-1.4s-1.7,0.5-2,1.4C9.9,23.8,9.5,24,9.2,24
		C9.1,24,9,24,9,24c-1.1-0.3-2.2-0.7-3.2-1.3c-0.4-0.2-0.6-0.7-0.4-1.2c0.4-0.8,0.2-1.7-0.4-2.4c-0.4-0.4-0.9-0.6-1.5-0.6
		c-0.3,0-0.6,0.1-0.9,0.2c-0.1,0.1-0.2,0.1-0.4,0.1c-0.3,0-0.6-0.2-0.8-0.4c-0.6-1-1.1-2.1-1.3-3.2c-0.1-0.4,0.1-0.9,0.6-1.1
		C1.4,13.7,2,12.9,2,12s-0.5-1.7-1.4-2C0.2,9.8-0.1,9.4,0,8.9c0.3-1.1,0.7-2.2,1.3-3.2c0.2-0.3,0.5-0.4,0.8-0.4c0.1,0,0.3,0,0.4,0.1
		c0.3,0.1,0.6,0.2,0.9,0.2C4,5.6,4.5,5.4,4.9,5c0.6-0.6,0.8-1.6,0.4-2.4c-0.2-0.4,0-0.9,0.4-1.2c1-0.6,2.1-1.1,3.2-1.3
		C9,0,9.1,0,9.2,0C9.5,0,9.9,0.2,10,0.6C10.3,1.4,11.1,2,12,2s1.7-0.5,2-1.4C14.1,0.2,14.5,0,14.8,0c0.1,0,0.1,0,0.2,0
		c1.1,0.3,2.2,0.7,3.2,1.3c0.4,0.2,0.6,0.7,0.4,1.2c-0.4,0.8-0.2,1.7,0.4,2.4c0.4,0.4,0.9,0.6,1.5,0.6c0.3,0,0.6-0.1,0.9-0.2
		c0.1-0.1,0.2-0.1,0.4-0.1c0.3,0,0.6,0.2,0.8,0.4c0.6,1,1.1,2.1,1.3,3.2c0.1,0.4-0.1,0.9-0.6,1.1c-0.8,0.3-1.4,1.1-1.4,2
		s0.5,1.7,1.4,2c0.4,0.2,0.7,0.6,0.6,1.1c-0.3,1.1-0.7,2.2-1.3,3.2c-0.2,0.3-0.5,0.4-0.8,0.4l0,0c-0.1,0-0.3,0-0.4-0.1
		c-0.3-0.1-0.6-0.2-0.9-0.2c-0.6,0-1.1,0.2-1.5,0.6c-0.6,0.6-0.8,1.6-0.4,2.4c0.2,0.4,0,0.9-0.4,1.2c-1,0.6-2.1,1.1-3.2,1.3
		C15,24,14.9,24,14.8,24z M7.2,21.4c0.5,0.2,1,0.4,1.5,0.6c0.7-1.1,2-1.8,3.3-1.8s2.6,0.7,3.3,1.8c0.5-0.2,1-0.4,1.4-0.6
		c-0.3-1.3,0.1-2.6,1.1-3.6c0.7-0.7,1.8-1.1,2.8-1.1c0.3,0,0.5,0,0.8,0.1c0.2-0.5,0.4-1,0.6-1.5c-1.1-0.7-1.8-1.9-1.8-3.3
		c0-1.3,0.7-2.6,1.8-3.3c-0.2-0.5-0.4-1-0.6-1.4c-0.3,0.1-0.5,0.1-0.8,0.1c-1,0-2-0.4-2.8-1.2c-0.9-0.9-1.3-2.3-1.1-3.6
		c-0.5-0.2-1-0.4-1.5-0.6c-0.7,1.1-2,1.8-3.3,1.8S9.3,3.1,8.6,2c-0.5,0.2-1,0.4-1.4,0.6c0.3,1.3-0.1,2.6-1.1,3.6
		C5.4,6.9,4.4,7.3,3.4,7.3c-0.3,0-0.5,0-0.8-0.1C2.4,7.7,2.2,8.2,2,8.7c1.1,0.7,1.8,2,1.8,3.3S3.1,14.6,2,15.3
		c0.2,0.5,0.4,1,0.6,1.4c0.3-0.1,0.5-0.1,0.8-0.1c1,0,2,0.4,2.8,1.2C7.1,18.7,7.5,20.1,7.2,21.4z"/>
</g>
</svg>
